<mxfile host="app.diagrams.net" modified="2021-02-01T05:46:48.826Z" agent="5.0 (Windows NT 10.0; Win64; x64) AppleWebKit/537.36 (KHTML, like Gecko) Chrome/78.0.3904.70 Safari/537.36" etag="WoM2OaQPK7DH-DGWE08I" version="14.2.9" type="github">
  <diagram id="eG5aiIGwPH6QsHZ0CiSs" name="第 1 页">
    <mxGraphModel dx="1673" dy="2065" grid="1" gridSize="10" guides="1" tooltips="1" connect="1" arrows="1" fold="1" page="1" pageScale="1" pageWidth="827" pageHeight="1169" math="0" shadow="0">
      <root>
        <mxCell id="0" />
        <mxCell id="1" parent="0" />
        <mxCell id="IGkinvyOdZnhhztwzakV-101" value="回调引擎" style="label;whiteSpace=wrap;html=1;align=center;verticalAlign=bottom;spacingLeft=0;spacingBottom=4;imageAlign=center;imageVerticalAlign=top;image=img/clipart/Gear_128x128.png;dashed=1;sketch=1;strokeColor=#CC0000;strokeWidth=2;fillColor=none;fontFamily=Verdana;fontSize=15;fontColor=#1A1A1A;fontStyle=1;labelBorderColor=none;labelBackgroundColor=none;" vertex="1" parent="1">
          <mxGeometry x="472.5" y="415.44" width="427.5" height="224.56" as="geometry" />
        </mxCell>
        <mxCell id="IGkinvyOdZnhhztwzakV-7" value="" style="edgeStyle=orthogonalEdgeStyle;rounded=0;sketch=1;orthogonalLoop=1;jettySize=auto;html=1;fontSize=15;entryX=-0.15;entryY=0.379;entryDx=0;entryDy=0;entryPerimeter=0;fontStyle=1;labelBorderColor=none;labelBackgroundColor=none;" edge="1" parent="1" source="IGkinvyOdZnhhztwzakV-1" target="IGkinvyOdZnhhztwzakV-4">
          <mxGeometry relative="1" as="geometry">
            <mxPoint x="160" y="173" as="targetPoint" />
          </mxGeometry>
        </mxCell>
        <mxCell id="IGkinvyOdZnhhztwzakV-1" value="Actor" style="shape=umlActor;verticalLabelPosition=bottom;verticalAlign=top;html=1;outlineConnect=0;sketch=1;fontStyle=1;labelBorderColor=none;labelBackgroundColor=none;" vertex="1" parent="1">
          <mxGeometry x="80" y="142.5" width="30" height="60" as="geometry" />
        </mxCell>
        <mxCell id="IGkinvyOdZnhhztwzakV-9" value="" style="edgeStyle=orthogonalEdgeStyle;rounded=0;sketch=1;orthogonalLoop=1;jettySize=auto;html=1;fontSize=15;fontStyle=1;labelBorderColor=none;labelBackgroundColor=none;" edge="1" parent="1" source="IGkinvyOdZnhhztwzakV-4" target="IGkinvyOdZnhhztwzakV-8">
          <mxGeometry relative="1" as="geometry">
            <Array as="points">
              <mxPoint x="220" y="173" />
              <mxPoint x="220" y="173" />
            </Array>
          </mxGeometry>
        </mxCell>
        <mxCell id="IGkinvyOdZnhhztwzakV-4" value="业务方" style="rounded=0;whiteSpace=wrap;html=1;sketch=1;dashed=1;strokeWidth=2;perimeterSpacing=0;strokeColor=#d79b00;fillColor=#ffe6cc;fontSize=15;fontStyle=1;labelBorderColor=none;labelBackgroundColor=none;" vertex="1" parent="1">
          <mxGeometry x="190" y="87.5" width="20" height="232.5" as="geometry" />
        </mxCell>
        <mxCell id="IGkinvyOdZnhhztwzakV-33" style="edgeStyle=orthogonalEdgeStyle;rounded=0;sketch=1;orthogonalLoop=1;jettySize=auto;html=1;exitX=1;exitY=0.5;exitDx=0;exitDy=0;entryX=0;entryY=0.5;entryDx=0;entryDy=0;fontFamily=Verdana;fontSize=15;fontStyle=1;labelBorderColor=none;labelBackgroundColor=none;" edge="1" parent="1" source="IGkinvyOdZnhhztwzakV-8" target="IGkinvyOdZnhhztwzakV-29">
          <mxGeometry relative="1" as="geometry" />
        </mxCell>
        <mxCell id="IGkinvyOdZnhhztwzakV-8" value="业务参数校验" style="whiteSpace=wrap;html=1;rounded=0;dashed=1;dashPattern=1 1;fontSize=15;strokeColor=#d79b00;strokeWidth=2;fillColor=#ffe6cc;sketch=1;fontStyle=1;labelBorderColor=none;labelBackgroundColor=none;" vertex="1" parent="1">
          <mxGeometry x="290" y="106.88" width="60" height="131.25" as="geometry" />
        </mxCell>
        <mxCell id="IGkinvyOdZnhhztwzakV-124" style="edgeStyle=orthogonalEdgeStyle;rounded=0;sketch=1;orthogonalLoop=1;jettySize=auto;html=1;exitX=0.5;exitY=0;exitDx=0;exitDy=0;exitPerimeter=0;entryX=0.444;entryY=1;entryDx=0;entryDy=0;entryPerimeter=0;strokeColor=#1A1A1A;strokeWidth=1;fontFamily=Verdana;fontSize=15;fontColor=#1A1A1A;dashed=1;fontStyle=1;labelBorderColor=none;labelBackgroundColor=none;" edge="1" parent="1" source="IGkinvyOdZnhhztwzakV-10" target="IGkinvyOdZnhhztwzakV-49">
          <mxGeometry relative="1" as="geometry">
            <Array as="points">
              <mxPoint x="800" y="320" />
              <mxPoint x="821" y="320" />
            </Array>
          </mxGeometry>
        </mxCell>
        <mxCell id="IGkinvyOdZnhhztwzakV-10" value="enhancelog_base&lt;br&gt;快照定义信息" style="shape=cylinder3;whiteSpace=wrap;html=1;boundedLbl=1;backgroundOutline=1;size=7.3529411764705515;dashed=1;dashPattern=1 1;sketch=1;strokeWidth=2;fontSize=15;fillColor=#f8cecc;strokeColor=#CC0000;fontStyle=1;labelBorderColor=none;labelBackgroundColor=none;" vertex="1" parent="1">
          <mxGeometry x="724.38" y="330" width="151.87" height="50" as="geometry" />
        </mxCell>
        <mxCell id="IGkinvyOdZnhhztwzakV-38" style="edgeStyle=orthogonalEdgeStyle;rounded=0;sketch=1;orthogonalLoop=1;jettySize=auto;html=1;exitX=0;exitY=0;exitDx=70;exitDy=50;exitPerimeter=0;fontFamily=Verdana;fontSize=15;fontStyle=1;labelBorderColor=none;labelBackgroundColor=none;" edge="1" parent="1" source="IGkinvyOdZnhhztwzakV-15" target="IGkinvyOdZnhhztwzakV-13">
          <mxGeometry relative="1" as="geometry" />
        </mxCell>
        <mxCell id="IGkinvyOdZnhhztwzakV-15" value="apollo" style="shape=cube;whiteSpace=wrap;html=1;boundedLbl=1;backgroundOutline=1;darkOpacity=0.05;darkOpacity2=0.1;dashed=1;dashPattern=1 1;sketch=1;strokeColor=#82b366;strokeWidth=2;fontSize=15;size=10;fontFamily=Verdana;align=center;fontStyle=1;fillColor=#d5e8d4;labelBorderColor=none;labelBackgroundColor=none;" vertex="1" parent="1">
          <mxGeometry x="417.5" width="130" height="50" as="geometry" />
        </mxCell>
        <mxCell id="IGkinvyOdZnhhztwzakV-16" value="" style="endArrow=none;dashed=1;html=1;fontFamily=Verdana;fontSize=15;strokeWidth=4;fontStyle=1;labelBorderColor=none;labelBackgroundColor=none;" edge="1" parent="1">
          <mxGeometry width="50" height="50" relative="1" as="geometry">
            <mxPoint x="270" y="670" as="sourcePoint" />
            <mxPoint x="260" y="-60" as="targetPoint" />
          </mxGeometry>
        </mxCell>
        <mxCell id="IGkinvyOdZnhhztwzakV-25" value="业务标识：&lt;br&gt;初始化模式：&lt;br&gt;分片大小：&lt;br&gt;查询模式：&lt;br&gt;token：&lt;br&gt;初始化回调地址：&lt;br&gt;消息通知回调地址" style="shape=note;whiteSpace=wrap;html=1;backgroundOutline=1;darkOpacity=0.05;dashed=1;dashPattern=1 1;fontFamily=Verdana;fontSize=15;fontStyle=1;strokeColor=#82b366;strokeWidth=2;fillColor=#d5e8d4;sketch=1;align=center;labelBorderColor=none;labelBackgroundColor=none;" vertex="1" parent="1">
          <mxGeometry x="621.25" y="-50" width="130" height="180" as="geometry" />
        </mxCell>
        <mxCell id="IGkinvyOdZnhhztwzakV-37" value="" style="edgeStyle=orthogonalEdgeStyle;rounded=0;sketch=1;orthogonalLoop=1;jettySize=auto;html=1;fontFamily=Verdana;fontSize=15;fontStyle=1;labelBorderColor=none;labelBackgroundColor=none;" edge="1" parent="1" source="IGkinvyOdZnhhztwzakV-29" target="IGkinvyOdZnhhztwzakV-36">
          <mxGeometry relative="1" as="geometry" />
        </mxCell>
        <mxCell id="IGkinvyOdZnhhztwzakV-29" value="组装业务配置上下文" style="whiteSpace=wrap;html=1;dashed=1;dashPattern=1 1;fontFamily=Verdana;fontSize=15;fontStyle=1;strokeColor=#82b366;strokeWidth=2;fillColor=#d5e8d4;sketch=1;labelBorderColor=none;labelBackgroundColor=none;" vertex="1" parent="1">
          <mxGeometry x="390" y="136.88" width="145" height="75" as="geometry" />
        </mxCell>
        <mxCell id="IGkinvyOdZnhhztwzakV-39" style="edgeStyle=orthogonalEdgeStyle;rounded=0;sketch=1;orthogonalLoop=1;jettySize=auto;html=1;exitX=0.55;exitY=0.95;exitDx=0;exitDy=0;exitPerimeter=0;entryX=0.5;entryY=0;entryDx=0;entryDy=0;fontFamily=Verdana;fontSize=15;fontStyle=1;labelBorderColor=none;labelBackgroundColor=none;" edge="1" parent="1" source="IGkinvyOdZnhhztwzakV-13" target="IGkinvyOdZnhhztwzakV-29">
          <mxGeometry relative="1" as="geometry">
            <Array as="points">
              <mxPoint x="490" y="109" />
            </Array>
          </mxGeometry>
        </mxCell>
        <mxCell id="IGkinvyOdZnhhztwzakV-13" value="热更新" style="ellipse;shape=cloud;whiteSpace=wrap;html=1;dashed=1;dashPattern=1 1;sketch=1;strokeColor=#6c8ebf;strokeWidth=2;fontSize=15;fillColor=#7EA6E0;fontStyle=1;labelBorderColor=none;labelBackgroundColor=none;" vertex="1" parent="1">
          <mxGeometry x="445" y="80" width="90" height="30" as="geometry" />
        </mxCell>
        <mxCell id="IGkinvyOdZnhhztwzakV-42" value="" style="edgeStyle=orthogonalEdgeStyle;rounded=0;sketch=1;orthogonalLoop=1;jettySize=auto;html=1;fontFamily=Verdana;fontSize=15;fontStyle=1;labelBorderColor=none;labelBackgroundColor=none;" edge="1" parent="1" source="IGkinvyOdZnhhztwzakV-36" target="IGkinvyOdZnhhztwzakV-41">
          <mxGeometry relative="1" as="geometry" />
        </mxCell>
        <mxCell id="IGkinvyOdZnhhztwzakV-56" value="通过" style="edgeLabel;html=1;align=center;verticalAlign=middle;resizable=0;points=[];fontSize=15;fontFamily=Verdana;fontStyle=1;labelBorderColor=none;labelBackgroundColor=none;" vertex="1" connectable="0" parent="IGkinvyOdZnhhztwzakV-42">
          <mxGeometry x="-0.291" relative="1" as="geometry">
            <mxPoint as="offset" />
          </mxGeometry>
        </mxCell>
        <mxCell id="IGkinvyOdZnhhztwzakV-54" style="edgeStyle=orthogonalEdgeStyle;rounded=0;sketch=1;orthogonalLoop=1;jettySize=auto;html=1;exitX=0.5;exitY=1;exitDx=0;exitDy=0;fontFamily=Verdana;fontSize=15;fontStyle=1;labelBorderColor=none;labelBackgroundColor=none;" edge="1" parent="1" source="IGkinvyOdZnhhztwzakV-36" target="IGkinvyOdZnhhztwzakV-4">
          <mxGeometry relative="1" as="geometry">
            <Array as="points">
              <mxPoint x="637" y="280" />
            </Array>
          </mxGeometry>
        </mxCell>
        <mxCell id="IGkinvyOdZnhhztwzakV-55" value="不通过" style="edgeLabel;html=1;align=center;verticalAlign=middle;resizable=0;points=[];fontSize=15;fontFamily=Verdana;fontStyle=1;labelBorderColor=none;labelBackgroundColor=none;" vertex="1" connectable="0" parent="IGkinvyOdZnhhztwzakV-54">
          <mxGeometry x="-0.9125" y="-2" relative="1" as="geometry">
            <mxPoint as="offset" />
          </mxGeometry>
        </mxCell>
        <mxCell id="IGkinvyOdZnhhztwzakV-36" value="token验证" style="rhombus;whiteSpace=wrap;html=1;dashed=1;dashPattern=1 1;fontFamily=Verdana;fontSize=15;fontStyle=1;strokeColor=#82b366;strokeWidth=2;fillColor=#d5e8d4;sketch=1;labelBorderColor=none;labelBackgroundColor=none;" vertex="1" parent="1">
          <mxGeometry x="570" y="142.5" width="135" height="67.5" as="geometry" />
        </mxCell>
        <mxCell id="IGkinvyOdZnhhztwzakV-44" value="" style="edgeStyle=orthogonalEdgeStyle;rounded=0;sketch=1;orthogonalLoop=1;jettySize=auto;html=1;fontFamily=Verdana;fontSize=15;fontStyle=1;labelBorderColor=none;labelBackgroundColor=none;" edge="1" parent="1" source="IGkinvyOdZnhhztwzakV-41" target="IGkinvyOdZnhhztwzakV-43">
          <mxGeometry relative="1" as="geometry" />
        </mxCell>
        <mxCell id="IGkinvyOdZnhhztwzakV-50" value="" style="edgeStyle=orthogonalEdgeStyle;rounded=0;sketch=1;orthogonalLoop=1;jettySize=auto;html=1;fontFamily=Verdana;fontSize=15;dashed=1;strokeColor=#67AB9F;fontStyle=1;labelBorderColor=none;labelBackgroundColor=none;" edge="1" parent="1" source="IGkinvyOdZnhhztwzakV-41" target="IGkinvyOdZnhhztwzakV-49">
          <mxGeometry relative="1" as="geometry" />
        </mxCell>
        <mxCell id="IGkinvyOdZnhhztwzakV-57" value="产生" style="edgeLabel;html=1;align=center;verticalAlign=middle;resizable=0;points=[];fontSize=15;fontFamily=Verdana;fontStyle=1;labelBorderColor=none;labelBackgroundColor=none;" vertex="1" connectable="0" parent="IGkinvyOdZnhhztwzakV-50">
          <mxGeometry x="-0.3" y="1" relative="1" as="geometry">
            <mxPoint as="offset" />
          </mxGeometry>
        </mxCell>
        <mxCell id="IGkinvyOdZnhhztwzakV-41" value="创建快照定义信息&lt;br&gt;status：0" style="whiteSpace=wrap;html=1;dashed=1;dashPattern=1 1;fontFamily=Verdana;fontSize=15;fontStyle=1;strokeColor=#82b366;strokeWidth=2;fillColor=#d5e8d4;sketch=1;labelBorderColor=none;labelBackgroundColor=none;" vertex="1" parent="1">
          <mxGeometry x="760" y="142.5" width="140" height="57.5" as="geometry" />
        </mxCell>
        <mxCell id="IGkinvyOdZnhhztwzakV-51" style="edgeStyle=orthogonalEdgeStyle;rounded=0;sketch=1;orthogonalLoop=1;jettySize=auto;html=1;entryX=1;entryY=0.5;entryDx=0;entryDy=0;fontFamily=Verdana;fontSize=15;fontStyle=1;labelBorderColor=none;labelBackgroundColor=none;" edge="1" parent="1" source="IGkinvyOdZnhhztwzakV-43" target="IGkinvyOdZnhhztwzakV-49">
          <mxGeometry relative="1" as="geometry">
            <Array as="points">
              <mxPoint x="1010" y="280" />
            </Array>
          </mxGeometry>
        </mxCell>
        <mxCell id="IGkinvyOdZnhhztwzakV-52" value="否" style="edgeLabel;html=1;align=center;verticalAlign=middle;resizable=0;points=[];fontSize=15;fontFamily=Verdana;fontStyle=1;labelBorderColor=none;labelBackgroundColor=none;" vertex="1" connectable="0" parent="IGkinvyOdZnhhztwzakV-51">
          <mxGeometry x="-0.7105" y="-2" relative="1" as="geometry">
            <mxPoint as="offset" />
          </mxGeometry>
        </mxCell>
        <mxCell id="IGkinvyOdZnhhztwzakV-60" value="" style="edgeStyle=orthogonalEdgeStyle;rounded=0;sketch=1;orthogonalLoop=1;jettySize=auto;html=1;strokeColor=#1A1A1A;fontFamily=Verdana;fontSize=15;fontStyle=1;labelBorderColor=none;labelBackgroundColor=none;" edge="1" parent="1" source="IGkinvyOdZnhhztwzakV-43" target="IGkinvyOdZnhhztwzakV-59">
          <mxGeometry relative="1" as="geometry" />
        </mxCell>
        <mxCell id="IGkinvyOdZnhhztwzakV-43" value="立即初始化" style="rhombus;whiteSpace=wrap;html=1;dashed=1;dashPattern=1 1;fontFamily=Verdana;fontSize=15;fontStyle=1;strokeColor=#82b366;strokeWidth=2;fillColor=#d5e8d4;sketch=1;labelBorderColor=none;labelBackgroundColor=none;" vertex="1" parent="1">
          <mxGeometry x="950" y="136.88" width="120" height="68.75" as="geometry" />
        </mxCell>
        <mxCell id="IGkinvyOdZnhhztwzakV-118" style="edgeStyle=orthogonalEdgeStyle;rounded=0;sketch=1;orthogonalLoop=1;jettySize=auto;html=1;strokeColor=#1A1A1A;strokeWidth=1;fontFamily=Verdana;fontSize=15;fontColor=#1A1A1A;fontStyle=1;labelBorderColor=none;labelBackgroundColor=none;" edge="1" parent="1" source="IGkinvyOdZnhhztwzakV-49">
          <mxGeometry relative="1" as="geometry">
            <mxPoint x="220" y="280" as="targetPoint" />
          </mxGeometry>
        </mxCell>
        <mxCell id="IGkinvyOdZnhhztwzakV-49" value="快照定义信息" style="shape=document;whiteSpace=wrap;html=1;boundedLbl=1;dashed=1;dashPattern=1 1;fontFamily=Verdana;fontSize=15;fontStyle=1;strokeColor=#d79b00;strokeWidth=2;fillColor=#ffe6cc;sketch=1;labelBorderColor=none;labelBackgroundColor=none;" vertex="1" parent="1">
          <mxGeometry x="750" y="250" width="160" height="60" as="geometry" />
        </mxCell>
        <mxCell id="IGkinvyOdZnhhztwzakV-61" style="edgeStyle=orthogonalEdgeStyle;rounded=0;sketch=1;orthogonalLoop=1;jettySize=auto;html=1;entryX=1;entryY=0.5;entryDx=0;entryDy=0;strokeColor=#1A1A1A;fontFamily=Verdana;fontSize=15;fontStyle=1;labelBorderColor=none;labelBackgroundColor=none;" edge="1" parent="1" source="IGkinvyOdZnhhztwzakV-59" target="IGkinvyOdZnhhztwzakV-49">
          <mxGeometry relative="1" as="geometry">
            <Array as="points">
              <mxPoint x="1200" y="280" />
            </Array>
          </mxGeometry>
        </mxCell>
        <mxCell id="IGkinvyOdZnhhztwzakV-62" value="否" style="edgeLabel;html=1;align=center;verticalAlign=middle;resizable=0;points=[];fontSize=15;fontFamily=Verdana;fontStyle=1;labelBorderColor=none;labelBackgroundColor=none;" vertex="1" connectable="0" parent="IGkinvyOdZnhhztwzakV-61">
          <mxGeometry x="-0.873" relative="1" as="geometry">
            <mxPoint as="offset" />
          </mxGeometry>
        </mxCell>
        <mxCell id="IGkinvyOdZnhhztwzakV-82" style="edgeStyle=orthogonalEdgeStyle;rounded=0;sketch=1;orthogonalLoop=1;jettySize=auto;html=1;strokeColor=#1A1A1A;fontFamily=Verdana;fontSize=15;fontColor=#1A1A1A;dashed=1;entryX=0.874;entryY=-0.069;entryDx=0;entryDy=0;entryPerimeter=0;fontStyle=1;labelBorderColor=none;labelBackgroundColor=none;" edge="1" parent="1" source="IGkinvyOdZnhhztwzakV-59" target="IGkinvyOdZnhhztwzakV-64">
          <mxGeometry relative="1" as="geometry">
            <mxPoint x="1230" y="410" as="targetPoint" />
            <Array as="points">
              <mxPoint x="1200" y="328" />
              <mxPoint x="1203" y="328" />
            </Array>
          </mxGeometry>
        </mxCell>
        <mxCell id="IGkinvyOdZnhhztwzakV-111" value="异步发起初始化" style="edgeLabel;html=1;align=center;verticalAlign=middle;resizable=0;points=[];fontSize=15;fontFamily=Verdana;fontColor=#1A1A1A;fontStyle=1;labelBorderColor=none;labelBackgroundColor=none;" vertex="1" connectable="0" parent="IGkinvyOdZnhhztwzakV-82">
          <mxGeometry x="0.3757" y="-1" relative="1" as="geometry">
            <mxPoint as="offset" />
          </mxGeometry>
        </mxCell>
        <mxCell id="IGkinvyOdZnhhztwzakV-109" style="edgeStyle=orthogonalEdgeStyle;rounded=0;sketch=1;orthogonalLoop=1;jettySize=auto;html=1;exitX=1;exitY=0.5;exitDx=0;exitDy=0;entryX=1;entryY=0.5;entryDx=0;entryDy=0;strokeColor=#1A1A1A;fontFamily=Verdana;fontSize=15;fontColor=#1A1A1A;fontStyle=1;labelBorderColor=none;labelBackgroundColor=none;" edge="1" parent="1" source="IGkinvyOdZnhhztwzakV-59" target="IGkinvyOdZnhhztwzakV-64">
          <mxGeometry relative="1" as="geometry" />
        </mxCell>
        <mxCell id="IGkinvyOdZnhhztwzakV-110" value="是" style="edgeLabel;html=1;align=center;verticalAlign=middle;resizable=0;points=[];fontSize=15;fontFamily=Verdana;fontColor=#1A1A1A;fontStyle=1;labelBorderColor=none;labelBackgroundColor=none;" vertex="1" connectable="0" parent="IGkinvyOdZnhhztwzakV-109">
          <mxGeometry x="-0.5797" relative="1" as="geometry">
            <mxPoint as="offset" />
          </mxGeometry>
        </mxCell>
        <mxCell id="IGkinvyOdZnhhztwzakV-59" value="同步初始化" style="rhombus;whiteSpace=wrap;html=1;dashed=1;dashPattern=1 1;fontFamily=Verdana;fontSize=15;fontStyle=1;strokeColor=#82b366;strokeWidth=2;fillColor=#d5e8d4;sketch=1;labelBorderColor=none;labelBackgroundColor=none;" vertex="1" parent="1">
          <mxGeometry x="1140" y="136.88" width="120" height="68.75" as="geometry" />
        </mxCell>
        <mxCell id="IGkinvyOdZnhhztwzakV-84" style="edgeStyle=orthogonalEdgeStyle;rounded=0;sketch=1;orthogonalLoop=1;jettySize=auto;html=1;entryX=1.003;entryY=0.328;entryDx=0;entryDy=0;dashed=1;strokeColor=#1A1A1A;fontFamily=Verdana;fontSize=15;fontColor=#1A1A1A;entryPerimeter=0;fontStyle=1;labelBorderColor=none;labelBackgroundColor=none;" edge="1" parent="1" source="IGkinvyOdZnhhztwzakV-64" target="IGkinvyOdZnhhztwzakV-101">
          <mxGeometry relative="1" as="geometry">
            <mxPoint x="900.0000000000005" y="482.5" as="targetPoint" />
            <Array as="points">
              <mxPoint x="900" y="471" />
              <mxPoint x="900" y="489" />
            </Array>
          </mxGeometry>
        </mxCell>
        <mxCell id="IGkinvyOdZnhhztwzakV-64" value="按照配置选择回调策略" style="whiteSpace=wrap;html=1;dashed=1;dashPattern=1 1;fontFamily=Verdana;fontSize=15;fontStyle=1;strokeColor=#b85450;strokeWidth=2;fillColor=#f8cecc;sketch=1;labelBorderColor=none;labelBackgroundColor=none;" vertex="1" parent="1">
          <mxGeometry x="970" y="440" width="260" height="40" as="geometry" />
        </mxCell>
        <mxCell id="IGkinvyOdZnhhztwzakV-69" value="业务方&lt;br&gt;数据查询" style="rounded=0;whiteSpace=wrap;html=1;sketch=1;dashed=1;dashPattern=1 1;strokeWidth=2;perimeterSpacing=0;strokeColor=#d79b00;fillColor=#ffe6cc;fontSize=15;fontStyle=1;labelBorderColor=none;labelBackgroundColor=none;" vertex="1" parent="1">
          <mxGeometry x="190" y="360" width="20" height="140" as="geometry" />
        </mxCell>
        <mxCell id="IGkinvyOdZnhhztwzakV-73" value="分页" style="html=1;whiteSpace=wrap;shape=isoCube2;backgroundOutline=1;isoAngle=11.5196078431372;dashed=1;sketch=1;strokeColor=#9673a6;strokeWidth=2;fillColor=#e1d5e7;fontFamily=Verdana;fontSize=15;align=center;fontStyle=1;labelBorderColor=none;labelBackgroundColor=none;" vertex="1" parent="1">
          <mxGeometry x="1010" y="509.44" width="70" height="80" as="geometry" />
        </mxCell>
        <mxCell id="IGkinvyOdZnhhztwzakV-74" value="滚动" style="html=1;whiteSpace=wrap;shape=isoCube2;backgroundOutline=1;isoAngle=11.5196078431372;dashed=1;sketch=1;strokeColor=#9673a6;strokeWidth=2;fillColor=#e1d5e7;fontFamily=Verdana;fontSize=15;align=center;fontStyle=1;labelBorderColor=none;labelBackgroundColor=none;" vertex="1" parent="1">
          <mxGeometry x="1120" y="505" width="70" height="80" as="geometry" />
        </mxCell>
        <mxCell id="IGkinvyOdZnhhztwzakV-75" value="回调策略" style="html=1;whiteSpace=wrap;shape=isoCube2;backgroundOutline=1;isoAngle=4.166666666666903;dashed=1;dashPattern=1 1;sketch=1;strokeColor=#9673a6;strokeWidth=2;fillColor=#e1d5e7;fontFamily=Verdana;fontSize=15;align=center;fontStyle=1;labelBorderColor=none;labelBackgroundColor=none;" vertex="1" parent="1">
          <mxGeometry x="810" y="514" width="70" height="70.88" as="geometry" />
        </mxCell>
        <mxCell id="IGkinvyOdZnhhztwzakV-80" value="回调引擎" style="shape=process;whiteSpace=wrap;html=1;backgroundOutline=1;dashed=1;dashPattern=1 1;sketch=1;strokeColor=#2D7600;strokeWidth=2;fillColor=#60a917;fontFamily=Verdana;fontSize=15;align=center;fontColor=#1A1A1A;fontStyle=1;labelBorderColor=none;labelBackgroundColor=none;" vertex="1" parent="1">
          <mxGeometry x="495" y="505" width="130" height="40" as="geometry" />
        </mxCell>
        <mxCell id="IGkinvyOdZnhhztwzakV-85" value="并发管理" style="shape=process;whiteSpace=wrap;html=1;backgroundOutline=1;dashed=1;dashPattern=1 1;sketch=1;strokeColor=#d6b656;strokeWidth=2;fillColor=#fff2cc;fontFamily=Verdana;fontSize=15;align=center;fontStyle=1;labelBorderColor=none;labelBackgroundColor=none;" vertex="1" parent="1">
          <mxGeometry x="660" y="570" width="130" height="40" as="geometry" />
        </mxCell>
        <mxCell id="IGkinvyOdZnhhztwzakV-88" style="edgeStyle=orthogonalEdgeStyle;rounded=0;sketch=1;orthogonalLoop=1;jettySize=auto;html=1;entryX=1.5;entryY=0.633;entryDx=0;entryDy=0;entryPerimeter=0;dashed=1;strokeColor=#1A1A1A;fontFamily=Verdana;fontSize=15;fontColor=#1A1A1A;shape=link;fontStyle=1;labelBorderColor=none;labelBackgroundColor=none;" edge="1" parent="1" source="IGkinvyOdZnhhztwzakV-102" target="IGkinvyOdZnhhztwzakV-69">
          <mxGeometry relative="1" as="geometry">
            <mxPoint x="267.5" y="525" as="sourcePoint" />
            <Array as="points">
              <mxPoint x="220" y="450" />
            </Array>
          </mxGeometry>
        </mxCell>
        <mxCell id="IGkinvyOdZnhhztwzakV-115" value="获取数据" style="edgeLabel;html=1;align=center;verticalAlign=middle;resizable=0;points=[];fontSize=15;fontFamily=Verdana;fontColor=#1A1A1A;fontStyle=1;labelBorderColor=none;labelBackgroundColor=none;" vertex="1" connectable="0" parent="IGkinvyOdZnhhztwzakV-88">
          <mxGeometry x="-0.3805" relative="1" as="geometry">
            <mxPoint x="-18.28" as="offset" />
          </mxGeometry>
        </mxCell>
        <mxCell id="IGkinvyOdZnhhztwzakV-89" style="edgeStyle=orthogonalEdgeStyle;shape=link;rounded=0;sketch=1;orthogonalLoop=1;jettySize=auto;html=1;dashed=1;strokeColor=#1A1A1A;fontFamily=Verdana;fontSize=15;fontColor=#1A1A1A;entryX=0;entryY=0.5;entryDx=0;entryDy=0;exitX=1.03;exitY=0.455;exitDx=0;exitDy=0;exitPerimeter=0;fontStyle=1;labelBorderColor=none;labelBackgroundColor=none;" edge="1" parent="1" source="IGkinvyOdZnhhztwzakV-102" target="IGkinvyOdZnhhztwzakV-80">
          <mxGeometry relative="1" as="geometry">
            <mxPoint x="417.5" y="525" as="sourcePoint" />
            <Array as="points">
              <mxPoint x="433" y="525" />
            </Array>
          </mxGeometry>
        </mxCell>
        <mxCell id="IGkinvyOdZnhhztwzakV-120" style="edgeStyle=orthogonalEdgeStyle;rounded=0;sketch=1;orthogonalLoop=1;jettySize=auto;html=1;entryX=0.5;entryY=1;entryDx=0;entryDy=0;entryPerimeter=0;strokeColor=#1A1A1A;strokeWidth=1;fontFamily=Verdana;fontSize=15;fontColor=#1A1A1A;fontStyle=1;labelBorderColor=none;labelBackgroundColor=none;" edge="1" parent="1" source="IGkinvyOdZnhhztwzakV-90" target="IGkinvyOdZnhhztwzakV-113">
          <mxGeometry relative="1" as="geometry" />
        </mxCell>
        <mxCell id="IGkinvyOdZnhhztwzakV-122" value="保存分片数据" style="edgeLabel;html=1;align=center;verticalAlign=middle;resizable=0;points=[];fontSize=15;fontFamily=Verdana;fontColor=#1A1A1A;fontStyle=1;labelBorderColor=none;labelBackgroundColor=none;" vertex="1" connectable="0" parent="IGkinvyOdZnhhztwzakV-120">
          <mxGeometry x="-0.2952" relative="1" as="geometry">
            <mxPoint y="-5.48" as="offset" />
          </mxGeometry>
        </mxCell>
        <mxCell id="IGkinvyOdZnhhztwzakV-90" value="数据存储" style="shape=process;whiteSpace=wrap;html=1;backgroundOutline=1;dashed=1;dashPattern=1 1;sketch=1;strokeColor=#b85450;strokeWidth=2;fillColor=#f8cecc;fontFamily=Verdana;fontSize=15;align=center;fontStyle=1;labelBorderColor=none;labelBackgroundColor=none;" vertex="1" parent="1">
          <mxGeometry x="487.5" y="435" width="145" height="50" as="geometry" />
        </mxCell>
        <mxCell id="IGkinvyOdZnhhztwzakV-121" style="edgeStyle=orthogonalEdgeStyle;rounded=0;sketch=1;orthogonalLoop=1;jettySize=auto;html=1;exitX=0.5;exitY=0;exitDx=0;exitDy=0;entryX=0.5;entryY=1;entryDx=0;entryDy=0;entryPerimeter=0;strokeColor=#1A1A1A;strokeWidth=1;fontFamily=Verdana;fontSize=15;fontColor=#1A1A1A;fontStyle=1;labelBorderColor=none;labelBackgroundColor=none;" edge="1" parent="1" source="IGkinvyOdZnhhztwzakV-91" target="IGkinvyOdZnhhztwzakV-10">
          <mxGeometry relative="1" as="geometry" />
        </mxCell>
        <mxCell id="IGkinvyOdZnhhztwzakV-123" value="更新快照信息" style="edgeLabel;html=1;align=center;verticalAlign=middle;resizable=0;points=[];fontSize=15;fontFamily=Verdana;fontColor=#1A1A1A;fontStyle=1;labelBorderColor=none;labelBackgroundColor=none;" vertex="1" connectable="0" parent="IGkinvyOdZnhhztwzakV-121">
          <mxGeometry x="0.1926" y="-2" relative="1" as="geometry">
            <mxPoint as="offset" />
          </mxGeometry>
        </mxCell>
        <mxCell id="IGkinvyOdZnhhztwzakV-91" value="配置更新" style="shape=process;whiteSpace=wrap;html=1;backgroundOutline=1;dashed=1;dashPattern=1 1;sketch=1;strokeColor=#b85450;strokeWidth=2;fillColor=#f8cecc;fontFamily=Verdana;fontSize=15;align=center;fontStyle=1;labelBorderColor=none;labelBackgroundColor=none;" vertex="1" parent="1">
          <mxGeometry x="730" y="435" width="146.25" height="50" as="geometry" />
        </mxCell>
        <mxCell id="IGkinvyOdZnhhztwzakV-117" style="edgeStyle=orthogonalEdgeStyle;shape=link;rounded=0;sketch=1;orthogonalLoop=1;jettySize=auto;html=1;entryX=1;entryY=0.75;entryDx=0;entryDy=0;strokeWidth=1;fontFamily=Verdana;fontSize=15;fontColor=#1A1A1A;dashed=1;strokeColor=#1A1A1A;fontStyle=1;labelBorderColor=none;labelBackgroundColor=none;" edge="1" parent="1" source="IGkinvyOdZnhhztwzakV-95" target="IGkinvyOdZnhhztwzakV-102">
          <mxGeometry relative="1" as="geometry" />
        </mxCell>
        <mxCell id="IGkinvyOdZnhhztwzakV-95" value="结果消息通知" style="shape=process;whiteSpace=wrap;html=1;backgroundOutline=1;dashed=1;dashPattern=1 1;sketch=1;strokeColor=#2D7600;strokeWidth=2;fillColor=#60a917;fontFamily=Verdana;fontSize=15;align=center;fontColor=#1A1A1A;fontStyle=1;labelBorderColor=none;labelBackgroundColor=none;" vertex="1" parent="1">
          <mxGeometry x="495" y="570" width="130" height="40" as="geometry" />
        </mxCell>
        <mxCell id="IGkinvyOdZnhhztwzakV-96" value="数据计算切分" style="shape=process;whiteSpace=wrap;html=1;backgroundOutline=1;dashed=1;dashPattern=1 1;sketch=1;strokeColor=#d6b656;strokeWidth=2;fillColor=#fff2cc;fontFamily=Verdana;fontSize=15;align=center;fontStyle=1;labelBorderColor=none;labelBackgroundColor=none;" vertex="1" parent="1">
          <mxGeometry x="660" y="505" width="130" height="40" as="geometry" />
        </mxCell>
        <mxCell id="IGkinvyOdZnhhztwzakV-106" style="edgeStyle=orthogonalEdgeStyle;shape=link;rounded=0;sketch=1;orthogonalLoop=1;jettySize=auto;html=1;entryX=1.085;entryY=0.411;entryDx=0;entryDy=0;entryPerimeter=0;dashed=1;strokeColor=#1A1A1A;fontFamily=Verdana;fontSize=15;fontColor=#1A1A1A;width=2.9411764705882355;exitX=0.015;exitY=0.705;exitDx=0;exitDy=0;exitPerimeter=0;fontStyle=1;labelBorderColor=none;labelBackgroundColor=none;" edge="1" parent="1" source="IGkinvyOdZnhhztwzakV-102" target="IGkinvyOdZnhhztwzakV-105">
          <mxGeometry relative="1" as="geometry">
            <mxPoint x="310" y="586" as="sourcePoint" />
            <Array as="points">
              <mxPoint x="321" y="572" />
              <mxPoint x="310" y="572" />
            </Array>
          </mxGeometry>
        </mxCell>
        <mxCell id="IGkinvyOdZnhhztwzakV-114" value="通知结果" style="edgeLabel;html=1;align=center;verticalAlign=middle;resizable=0;points=[];fontSize=15;fontFamily=Verdana;fontColor=#1A1A1A;fontStyle=1;labelBorderColor=none;labelBackgroundColor=none;" vertex="1" connectable="0" parent="IGkinvyOdZnhhztwzakV-106">
          <mxGeometry x="-0.1931" y="-1" relative="1" as="geometry">
            <mxPoint x="-9.56" y="-0.86" as="offset" />
          </mxGeometry>
        </mxCell>
        <mxCell id="IGkinvyOdZnhhztwzakV-102" value="HTTPClient" style="rounded=1;whiteSpace=wrap;html=1;dashed=1;sketch=1;strokeColor=#CC0000;strokeWidth=2;fillColor=none;fontFamily=Verdana;fontSize=15;fontColor=#1A1A1A;align=center;fontStyle=1;labelBorderColor=none;labelBackgroundColor=none;" vertex="1" parent="1">
          <mxGeometry x="320" y="424.56" width="110" height="215.44" as="geometry" />
        </mxCell>
        <mxCell id="IGkinvyOdZnhhztwzakV-103" value="" style="ellipse;shape=cloud;whiteSpace=wrap;html=1;dashed=1;sketch=1;strokeColor=#6c8ebf;strokeWidth=2;fillColor=#dae8fc;fontFamily=Verdana;fontSize=15;align=center;fontStyle=1;labelBorderColor=none;labelBackgroundColor=none;" vertex="1" parent="1">
          <mxGeometry x="334" y="440" width="80" height="46" as="geometry" />
        </mxCell>
        <mxCell id="IGkinvyOdZnhhztwzakV-105" value="业务方&lt;br&gt;状态通知" style="rounded=0;whiteSpace=wrap;html=1;sketch=1;dashed=1;dashPattern=1 1;strokeWidth=2;perimeterSpacing=0;strokeColor=#d79b00;fillColor=#ffe6cc;fontSize=15;fontStyle=1;labelBorderColor=none;labelBackgroundColor=none;" vertex="1" parent="1">
          <mxGeometry x="190" y="514" width="20" height="140" as="geometry" />
        </mxCell>
        <mxCell id="IGkinvyOdZnhhztwzakV-113" value="enhancelog_content&lt;br&gt;快照分片数据" style="shape=cylinder3;whiteSpace=wrap;html=1;boundedLbl=1;backgroundOutline=1;size=9.117647058823707;dashed=1;dashPattern=1 1;sketch=1;strokeWidth=2;fontSize=15;fillColor=#f8cecc;strokeColor=#CC0000;fontStyle=1;labelBorderColor=none;labelBackgroundColor=none;" vertex="1" parent="1">
          <mxGeometry x="478.75" y="320" width="162.5" height="60" as="geometry" />
        </mxCell>
      </root>
    </mxGraphModel>
  </diagram>
</mxfile>
